<svg xmlns="http://www.w3.org/2000/svg" width="48" height="48" fill="none" viewBox="0 0 48 48">
    <path fill="#000" d="M24 48C10.766 48 0 37.234 0 24S10.766 0 24 0s24 10.766 24 24-10.766 24-24 24zm0-45C12.42 3 3 12.42 3 24s9.42 21 21 21 21-9.42 21-21S35.58 3 24 3z"/>
    <path fill="#000" d="M24 38c-.828 0-1.5-.672-1.5-1.5v-25c0-.828.672-1.5 1.5-1.5s1.5.672 1.5 1.5v25c0 .828-.672 1.5-1.5 1.5z"/>
    <path fill="#000" d="M32 21c-.384 0-.768-.146-1.06-.44L24 13.622l-6.94 6.94c-.586.586-1.536.586-2.121 0-.587-.586-.587-1.536 0-2.122l8-8c.585-.586 1.535-.586 2.122 0l8 8c.585.586.585 1.536 0 2.122-.293.292-.677.438-1.06.438z"/>
</svg>
