<svg xmlns="http://www.w3.org/2000/svg" width="74" height="60" fill="none" viewBox="0 0 74 60">
    <path fill="#010101" d="M35.475 0H.623C.458 0 .299.066.183.184.065.303 0 .463 0 .63v27.7c0 .166.066.327.182.445.117.118.276.184.44.184h34.853c.165 0 .323-.066.44-.184.117-.118.183-.279.183-.446V.63c0-.166-.066-.326-.183-.445C35.798.066 35.64 0 35.475 0zm-.623 27.7H1.245V1.222h33.607V27.7z"/>
    <path fill="#010101" d="M9.927 13.94c.688.003 1.36-.202 1.933-.587.572-.385 1.02-.933 1.284-1.575.264-.643.334-1.35.201-2.032-.133-.682-.463-1.31-.949-1.802-.485-.493-1.104-.828-1.779-.965-.674-.136-1.373-.067-2.008.199-.636.266-1.179.716-1.56 1.294-.383.579-.587 1.258-.587 1.954.002.93.368 1.821 1.017 2.48.65.658 1.53 1.03 2.448 1.035zm0-5.76c.441-.002.873.13 1.241.376.368.246.655.598.825 1.01.17.412.216.865.13 1.303-.084.438-.296.841-.607 1.157-.312.317-.709.532-1.142.62-.432.088-.88.044-1.289-.127-.407-.17-.756-.459-1.001-.83-.246-.371-.377-.807-.377-1.254 0-.596.234-1.169.65-1.591.416-.423.98-.661 1.57-.664zM4.36 25.18c.15.003.294-.053.405-.155l10.153-9.039 6.416 6.482c.12.121.282.19.451.19.17 0 .332-.069.451-.19.12-.12.187-.285.187-.456 0-.171-.067-.336-.187-.457l-2.987-3.03 5.713-6.327 7.012 6.5c.058.062.128.11.205.145.078.033.161.05.246.05.084 0 .168-.017.245-.05.078-.034.148-.083.206-.145.063-.058.112-.129.146-.207.034-.08.052-.164.052-.25 0-.085-.018-.17-.052-.249-.034-.079-.084-.15-.146-.207l-7.562-6.957c-.122-.109-.28-.167-.442-.164-.083.003-.164.023-.239.06-.074.035-.14.087-.195.15l-6.1 6.746-2.951-2.985c-.115-.108-.267-.169-.424-.169-.158 0-.31.06-.424.17l-10.595 9.44c-.065.054-.118.122-.156.198-.038.077-.06.16-.065.246-.005.085.007.17.036.251.028.08.073.155.13.217.061.064.134.114.215.147.08.033.168.048.255.045zM73.377 0H38.525c-.165 0-.323.066-.44.184-.117.119-.183.279-.183.446v27.7c0 .166.066.327.183.445.117.118.275.184.44.184h34.852c.165 0 .324-.066.44-.184.117-.118.183-.279.183-.446V.63c0-.166-.066-.326-.183-.445-.116-.118-.275-.184-.44-.184zm-.623 27.7H39.148V1.222h33.606V27.7z"/>
    <path fill="#010101" d="M47.83 13.94c.687.003 1.36-.202 1.932-.587.573-.385 1.02-.933 1.284-1.575.264-.643.334-1.35.201-2.032-.133-.682-.463-1.31-.948-1.802-.486-.493-1.105-.828-1.78-.965-.673-.136-1.372-.067-2.008.199-.635.266-1.178.716-1.56 1.294-.383.579-.587 1.258-.587 1.954.003.93.368 1.821 1.017 2.48.65.658 1.53 1.03 2.449 1.035zm0-5.76c.44-.002.873.13 1.24.376.368.246.655.598.825 1.01.17.412.216.865.13 1.303-.084.438-.296.841-.607 1.157-.311.317-.709.532-1.141.62-.433.088-.881.044-1.29-.127-.407-.17-.756-.459-1.001-.83-.245-.371-.376-.807-.376-1.254 0-.596.233-1.169.65-1.591.415-.423.98-.661 1.57-.664zM42.261 25.18c.15.003.296-.053.406-.155l10.153-9.039 6.416 6.482c.12.121.282.19.452.19.169 0 .331-.069.45-.19.12-.12.188-.285.188-.456 0-.171-.068-.336-.187-.457l-2.987-3.03 5.712-6.327 7.012 6.5c.058.062.128.11.206.145.077.033.16.05.245.05.085 0 .168-.017.246-.05.077-.034.147-.083.206-.145.062-.058.112-.129.146-.207.034-.08.051-.164.051-.25 0-.085-.017-.17-.051-.249-.034-.079-.084-.15-.147-.207l-7.562-6.957c-.122-.109-.28-.167-.442-.164-.083.003-.164.023-.238.06-.075.035-.141.087-.195.15l-6.1 6.746-2.952-2.985c-.115-.108-.267-.169-.424-.169-.157 0-.309.06-.424.17l-10.595 9.44c-.064.054-.117.122-.155.198-.039.077-.06.16-.066.246-.005.085.007.17.036.251.029.08.073.155.131.217.06.064.133.114.214.147.081.033.168.048.255.045zM35.475 31.041H.623c-.165 0-.324.066-.44.184-.117.119-.183.279-.183.446v27.7c0 .166.066.327.182.445.117.118.276.184.44.184h34.853c.165 0 .323-.066.44-.184.117-.118.183-.279.183-.446v-27.7c0-.166-.066-.326-.183-.445-.117-.118-.275-.184-.44-.184zm-.623 27.7H1.245V32.263h33.607V58.74z"/>
    <path fill="#010101" d="M9.927 44.982c.688.002 1.36-.203 1.933-.588.572-.385 1.02-.933 1.284-1.575.264-.643.334-1.35.201-2.032-.133-.682-.463-1.31-.949-1.802-.485-.493-1.104-.828-1.779-.965-.674-.136-1.373-.067-2.008.199-.636.266-1.179.716-1.56 1.294-.383.579-.587 1.259-.587 1.954.002.93.368 1.821 1.017 2.48.65.658 1.53 1.03 2.448 1.035zm0-5.76c.441-.003.873.128 1.241.375.368.246.655.598.825 1.01.17.412.216.865.13 1.303-.084.439-.296.841-.607 1.158-.312.316-.709.531-1.142.62-.432.087-.88.043-1.289-.128-.407-.17-.756-.459-1.001-.83-.246-.371-.377-.807-.377-1.254 0-.596.234-1.169.65-1.591.416-.423.98-.661 1.57-.664zM4.36 56.22c.15.003.294-.053.405-.155l10.153-9.038 6.416 6.482c.12.12.282.189.451.189.17 0 .332-.068.451-.19.12-.12.187-.284.187-.456 0-.17-.067-.335-.187-.456l-2.987-3.031 5.713-6.327 7.012 6.5c.058.062.128.111.205.145.078.034.161.051.246.051.084 0 .168-.017.245-.05.078-.035.148-.084.206-.146.063-.058.112-.128.146-.207.034-.079.052-.163.052-.25 0-.085-.018-.17-.052-.248-.034-.079-.084-.15-.146-.208l-7.562-6.957c-.122-.108-.28-.167-.442-.164-.083.003-.164.024-.239.06-.074.036-.14.087-.195.15l-6.1 6.747-2.951-2.985c-.115-.109-.267-.17-.424-.17-.158 0-.31.061-.424.17l-10.595 9.44c-.065.055-.118.123-.156.199-.038.076-.06.16-.065.245-.005.086.007.171.036.252.028.08.073.154.13.217.061.063.134.114.215.147.08.033.168.048.255.044zM73.377 31.041H38.525c-.165 0-.323.066-.44.184-.117.119-.183.279-.183.446v27.7c0 .166.066.327.183.445.117.118.275.184.44.184h34.852c.165 0 .324-.066.44-.184.117-.118.183-.279.183-.446v-27.7c0-.166-.066-.326-.183-.445-.116-.118-.275-.184-.44-.184zm-.623 27.7H39.148V32.263h33.606V58.74z"/>
    <path fill="#010101" d="M47.83 44.982c.687.002 1.36-.203 1.932-.588.573-.385 1.02-.933 1.284-1.575.264-.643.334-1.35.201-2.032-.133-.682-.463-1.31-.948-1.802-.486-.493-1.105-.828-1.78-.965-.673-.136-1.372-.067-2.008.199-.635.266-1.178.716-1.56 1.294-.383.579-.587 1.259-.587 1.954.003.93.368 1.821 1.017 2.48.65.658 1.53 1.03 2.449 1.035zm0-5.76c.44-.003.873.128 1.24.375.368.246.655.598.825 1.01.17.412.216.865.13 1.303-.084.439-.296.841-.607 1.158-.311.316-.709.531-1.141.62-.433.087-.881.043-1.29-.128-.407-.17-.756-.459-1.001-.83-.245-.371-.376-.807-.376-1.254 0-.596.233-1.169.65-1.591.415-.423.98-.661 1.57-.664zM42.261 56.22c.15.003.296-.053.406-.155l10.153-9.038 6.416 6.482c.12.12.282.189.452.189.169 0 .331-.068.45-.19.12-.12.188-.284.188-.456 0-.17-.068-.335-.187-.456l-2.987-3.031 5.712-6.327 7.012 6.5c.058.062.128.111.206.145.077.034.16.051.245.051.085 0 .168-.017.246-.05.077-.035.147-.084.206-.146.062-.058.112-.128.146-.207.034-.079.051-.163.051-.25 0-.085-.017-.17-.051-.248-.034-.079-.084-.15-.147-.208l-7.562-6.957c-.122-.108-.28-.167-.442-.164-.083.003-.164.024-.238.06-.075.036-.141.087-.195.15l-6.1 6.747-2.952-2.985c-.115-.109-.267-.17-.424-.17-.157 0-.309.061-.424.17l-10.595 9.44c-.064.055-.117.123-.155.199-.039.076-.06.16-.066.245-.005.086.007.171.036.252.029.08.073.154.131.217.06.063.133.114.214.147.081.033.168.048.255.044z"/>
</svg>
