<svg xmlns="http://www.w3.org/2000/svg" width="12" height="12" fill="none" viewBox="0 0 12 12">
    <path fill="#000" fill-opacity=".5" d="M7.43.727H1.055C.47.727 0 1.198 0 1.782V6c0 .583.471 1.054 1.055 1.054h.351V8.11c0 .254.263.438.52.31.008-.008.022-.008.029-.015 1.934-1.297 1.5-1.008 1.933-1.294.057-.035.12-.056.19-.056H7.43c.583 0 1.054-.47 1.054-1.054V1.78c0-.583-.47-1.054-1.054-1.054zM4.617 4.946h-2.86c-.463 0-.465-.703 0-.703h2.86c.464 0 .466.703 0 .703zm2.11-1.406h-4.97c-.463 0-.465-.704 0-.704h4.97c.463 0 .465.704 0 .704z"/>
    <path fill="#000" fill-opacity=".5" d="M10.945 3.54H9.187V6c0 .97-.787 1.758-1.757 1.758H4.184l-.668.443v.612c0 .584.47 1.055 1.054 1.055h3.457l2.018 1.35c.276.153.549-.033.549-.296V9.868h.351c.584 0 1.055-.471 1.055-1.055V4.594c0-.583-.471-1.054-1.055-1.054z"/>
</svg>
