<svg xmlns="http://www.w3.org/2000/svg" width="14" height="14" fill="none" viewBox="0 0 14 14">
    <g clip-path="url(#prefix__clip0)">
        <path fill="#000" d="M7.773 7.001L13.839.935c.214-.214.214-.56 0-.774-.213-.213-.56-.213-.773 0L7 6.228.933.16C.72-.052.373-.052.16.161c-.214.214-.214.56 0 .774L6.226 7 .16 13.067c-.214.214-.214.56 0 .774.106.107.246.16.386.16s.28-.053.387-.16L7 7.774l6.066 6.067c.107.107.247.16.387.16s.28-.053.386-.16c.214-.214.214-.56 0-.774L7.773 7.001z"/>
    </g>
    <defs>
        <clipPath id="prefix__clip0">
            <path fill="#fff" d="M0 0H14V14H0z"/>
        </clipPath>
    </defs>
</svg>
