<svg xmlns="http://www.w3.org/2000/svg" width="12" height="12" fill="none" viewBox="0 0 12 12">
    <g clip-path="url(#prefix__clip0)">
        <path fill="#000" d="M6.663 6.001l5.2-5.2c.183-.183.183-.48 0-.663-.183-.183-.48-.183-.663 0L6 5.338.8.138C.617-.045.32-.045.137.138c-.183.183-.183.48 0 .663l5.2 5.2-5.2 5.2c-.183.183-.183.48 0 .663.092.091.212.137.332.137.12 0 .24-.046.331-.137l5.2-5.2 5.2 5.2c.091.091.211.137.331.137.12 0 .24-.046.332-.137.183-.183.183-.48 0-.663L6.663 6z"/>
    </g>
    <defs>
        <clipPath id="prefix__clip0">
            <path fill="#fff" d="M0 0H12V12H0z"/>
        </clipPath>
    </defs>
</svg>
