<svg xmlns="http://www.w3.org/2000/svg" width="16" height="16" fill="none" viewBox="0 0 16 16">
    <path fill="#000" fill-opacity=".3" d="M14.313.777H3.967c-.898 0-1.629.724-1.629 1.61l-.067 9.111H.252c-.143 0-.252.127-.252.27v1.253c0 1.174.94 2.134 2.073 2.187v.015h8.712v-.017c.065.002.104.017.149.017h.006c1.21-.007 2.184-.993 2.177-2.202V5.053h2.63c.144 0 .253-.13.253-.273v-2.3c.002-.935-.752-1.696-1.687-1.703zM2.186 14.705h-.002c-.921 0-1.666-.762-1.666-1.684v-1.005h8.227v1c-.002.584.228 1.144.64 1.557.044.044.09.067.136.131H2.186zM12.6 13.02c0 .922-.737 1.683-1.66 1.683h-.005c-.926-.006-1.673-.76-1.67-1.687v-1.25c0-.144-.115-.264-.26-.269H2.79l.066-9.109c0-.602.498-1.093 1.11-1.093h9.123c-.295.323-.49.733-.49 1.19v10.535zm2.883-10.537v2.05h-2.365V2.486c0-.648.54-1.19 1.188-1.19h.007c.65.006 1.173.536 1.17 1.186v.002z"/>
    <path fill="#000" fill-opacity=".3" d="M6.084 7.155l1.336.914c.088.06.203.06.29 0l1.332-.913c.462-.316.804-.976.804-1.536V3.772c.003-.097-.05-.188-.138-.232l-2.034-1c-.071-.036-.155-.036-.226 0l-2.03.997c-.088.044-.141.135-.139.233v1.85c0 .56.343 1.22.805 1.535zm-.286-3.224l1.765-.87 1.765.873V5.62c0 .39-.256.887-.579 1.107l-1.19.814-1.184-.814c-.323-.22-.577-.716-.577-1.107V3.931z"/>
    <path fill="#000" fill-opacity=".3" d="M7.124 6.011c.049.05.115.078.184.078.07 0 .135-.028.183-.077l1.031-1.03c.102-.102.102-.266 0-.367-.1-.102-.265-.102-.366 0l-.847.846-.338-.342c-.101-.101-.265-.102-.367-.001-.102.1-.102.265-.002.366l.522.527zM10.785 8.81H4.567c-.143 0-.26.116-.26.259 0 .143.117.259.26.259h6.218c.143 0 .26-.116.26-.26 0-.142-.117-.258-.26-.258zM10.785 10.008H4.567c-.143 0-.26.116-.26.26 0 .143.117.258.26.258h6.218c.143 0 .26-.115.26-.259 0-.143-.117-.259-.26-.259z"/>
</svg>
