<svg xmlns="http://www.w3.org/2000/svg" width="12" height="12" fill="none" viewBox="0 0 12 12">
    <path fill="#000" fill-opacity=".5"  d="M4.625 0H.875C.392 0 0 .392 0 .875v2.25C0 3.608.392 4 .875 4h3.75c.483 0 .875-.392.875-.875V.875C5.5.392 5.108 0 4.625 0zM4.625 5H.875C.392 5 0 5.392 0 5.875v5.25c0 .482.392.875.875.875h3.75c.483 0 .875-.393.875-.875v-5.25C5.5 5.392 5.108 5 4.625 5zM11.125 8h-3.75c-.483 0-.875.392-.875.875v2.25c0 .482.392.875.875.875h3.75c.482 0 .875-.393.875-.875v-2.25c0-.483-.393-.875-.875-.875zM11.125 0h-3.75C6.892 0 6.5.392 6.5.875v5.25c0 .483.392.875.875.875h3.75c.482 0 .875-.392.875-.875V.875C12 .392 11.607 0 11.125 0z"/>
</svg>
