<svg xmlns="http://www.w3.org/2000/svg" width="20" height="20" fill="none" viewBox="0 0 20 20">
    <g fill="#000" clip-path="url(#prefix__clip0)">
        <path d="M15.214 0c-1.278 0-2.48.498-3.383 1.402L8.104 5.129c.285-.04.57-.083.86-.083.803 0 1.59.156 2.313.445l2.321-2.321c.432-.432 1.006-.67 1.616-.67 1.26 0 2.286 1.025 2.286 2.286 0 .61-.238 1.184-.67 1.616l-4.178 4.178c-.864.864-2.368.864-3.232.001L7.653 12.35c.904.903 2.105 1.4 3.383 1.4s2.48-.498 3.384-1.402l4.178-4.178C19.502 7.266 20 6.064 20 4.786 20 2.146 17.854 0 15.214 0z"/>
        <path d="M8.701 14.53l-2.299 2.3c-.432.432-1.006.67-1.616.67-1.26 0-2.286-1.026-2.286-2.286 0-.61.238-1.184.67-1.616l4.178-4.179c.864-.863 2.368-.863 3.233 0l1.766-1.769c-1.807-1.805-4.959-1.806-6.766.002L1.401 11.83C.498 12.734 0 13.936 0 15.214 0 17.854 2.147 20 4.786 20c1.278 0 2.48-.498 3.384-1.402l3.677-3.677c-.269.036-.536.079-.811.079-.815 0-1.605-.163-2.335-.47z"/>
    </g>
    <defs>
        <clipPath id="prefix__clip0">
            <path fill="#fff" d="M0 0H20V20H0z"/>
        </clipPath>
    </defs>
</svg>
