<svg xmlns="http://www.w3.org/2000/svg" width="12" height="12" fill="none" viewBox="0 0 12 12">
    <path fill="#000" fill-opacity=".5" d="M10.5 1.874H3.004c-.414 0-.75.336-.75.75s.336.75.75.75h7.498c.414 0 .75-.336.75-.75s-.336-.75-.75-.75zM1.504 2.624c-.001-.198-.08-.389-.222-.529-.292-.29-.764-.29-1.057 0-.14.14-.22.33-.22.53-.006.048-.006.097 0 .145.008.05.022.097.04.143.02.044.044.087.072.127.027.042.058.081.093.116.034.034.072.065.113.09.04.03.082.053.127.072.05.025.103.044.158.056.048.005.097.005.146 0 .198 0 .388-.078.528-.218.036-.035.067-.074.094-.116.027-.04.051-.083.071-.127.024-.046.043-.093.057-.143.005-.048.005-.097 0-.146zM1.504 5.998c.005-.049.005-.098 0-.146-.013-.049-.032-.095-.057-.139-.019-.046-.043-.09-.07-.131-.027-.042-.058-.08-.095-.113-.292-.29-.764-.29-1.057 0-.14.14-.22.33-.22.529 0 .099.02.196.055.289.02.044.042.087.068.127.028.04.061.078.097.112.033.037.071.068.113.094.04.029.082.053.127.071.046.02.094.033.143.042.048.01.097.015.146.015.048.005.098.005.146 0 .048-.009.094-.022.139-.042.046-.018.09-.042.131-.07.042-.027.08-.058.112-.095.037-.033.068-.07.094-.112.029-.04.053-.082.071-.127.026-.05.045-.103.057-.158.005-.048.005-.098 0-.146zM1.504 9.372c.005-.049.005-.098 0-.146-.013-.05-.032-.098-.057-.143-.02-.044-.044-.087-.07-.127-.027-.042-.058-.08-.095-.113-.292-.29-.764-.29-1.057 0-.036.033-.067.071-.093.113-.028.04-.051.083-.072.127-.019.046-.033.094-.04.143-.011.048-.016.097-.016.146.001.198.08.388.221.528.033.036.071.068.113.094.04.029.082.053.127.071.046.02.094.033.143.041.048.011.097.016.146.015.049.006.098.006.146 0 .048-.008.094-.022.139-.04.046-.02.09-.043.131-.072.042-.026.08-.058.113-.094.036-.033.067-.07.093-.112.03-.04.053-.082.071-.128.026-.05.045-.102.057-.157.005-.049.005-.098 0-.146zM11.25 5.248H3.003c-.414 0-.75.336-.75.75s.336.75.75.75h8.247c.414 0 .75-.336.75-.75s-.336-.75-.75-.75zM7.876 8.622H3.003c-.414 0-.75.336-.75.75s.336.75.75.75h4.873c.415 0 .75-.336.75-.75s-.335-.75-.75-.75z"/>
</svg>
