<svg xmlns="http://www.w3.org/2000/svg" width="20" height="20" fill="none" viewBox="0 0 20 20">
    <path fill="#000" d="M18.242 2.383H1.758c-.27 0-.524.066-.753.176l8.956 8.956 2.008-1.929 7.027-7.027c-.23-.11-.483-.176-.754-.176zM19.825 3.388L13.212 10l6.612 6.612c.11-.229.176-.482.176-.753V4.141c0-.27-.066-.524-.175-.753zM.176 3.388C.066 3.617 0 3.87 0 4.14V15.86c0 .27.066.523.176.752L6.789 10 .176 3.388z"/>
    <path fill="#000" d="M12.383 10.829l-2.007 1.93c-.115.114-.265.17-.415.17-.15 0-.3-.056-.414-.17l-1.93-1.93-6.612 6.612c.23.11.483.176.753.176h16.485c.27 0 .524-.066.753-.176l-6.613-6.612z"/>
</svg>
