<svg xmlns="http://www.w3.org/2000/svg" width="12" height="12" fill="none" viewBox="0 0 12 12">
    <g clip-path="url(#prefix__clip0)">
        <path fill="#000" fill-opacity=".5" d="M6 7.538V2.962c-.13.012-.258.032-.389.038H1.875c-.207 0-.375.168-.375.375v.375H.375c-.207 0-.375.168-.375.375v2.25c0 .207.168.375.375.375H1.5v.375c0 .207.168.375.375.375h.227l1.508 4.018c.092.24.298.415.552.466.05.01.1.016.15.016.2 0 .39-.08.527-.222l.9-.893c.23-.23.286-.59.139-.868L4.619 7.5h.996c.13.006.257.026.385.038zM11.938.181c-.007-.012-.014-.023-.024-.035-.041-.052-.093-.095-.157-.12-.002 0-.003-.004-.006-.004-.007-.003-.014.001-.021-.001-.034-.01-.068-.021-.105-.021-.026 0-.048.01-.073.015-.014.003-.028.004-.042.008-.065.021-.12.057-.164.107-.003.003-.008.003-.01.006-1.17 1.42-2.8 2.37-4.586 2.718v4.793c1.786.348 3.416 1.296 4.585 2.716.003.004.008.005.012.01.027.029.059.052.093.072.011.006.02.016.032.021.047.02.098.033.153.033.042 0 .084-.007.126-.021.003-.001.004-.004.006-.005.064-.025.116-.067.157-.12.01-.012.016-.022.024-.035.036-.058.062-.122.062-.194V.375c0-.072-.026-.136-.062-.194z"/>
    </g>
    <defs>
        <clipPath id="prefix__clip0">
            <path fill="#fff" d="M0 0H12V12H0z"/>
        </clipPath>
    </defs>
</svg>
