<svg xmlns="http://www.w3.org/2000/svg" width="20" height="20" fill="none" viewBox="0 0 20 20">
    <g clip-path="url(#prefix__clip0)">
        <path fill="#000" fill-opacity=".35" d="M18.889 1.094H1.111C.499 1.094 0 1.593 0 2.204v2.223c0 .612.499 1.111 1.111 1.111h17.778c.612 0 1.111-.499 1.111-1.11V2.204c0-.612-.499-1.111-1.111-1.111zM18.889 7.76H1.111C.499 7.76 0 8.26 0 8.871v2.223c0 .612.499 1.11 1.111 1.11h17.778c.612 0 1.111-.498 1.111-1.11V8.87c0-.612-.499-1.11-1.111-1.11zM18.889 14.427H1.111c-.612 0-1.111.499-1.111 1.111v2.222c0 .613.499 1.111 1.111 1.111h17.778c.612 0 1.111-.498 1.111-1.11v-2.223c0-.612-.499-1.11-1.111-1.11z"/>
    </g>
    <defs>
        <clipPath id="prefix__clip0">
            <path fill="#fff" d="M0 0H20V20H0z"/>
        </clipPath>
    </defs>
</svg>
