<svg xmlns="http://www.w3.org/2000/svg" width="12" height="12" fill="none" viewBox="0 0 12 12">
    <g clip-path="url(#prefix__clip0)">
        <path fill="#000" fill-opacity=".5" d="M9.291 6.29h1.406v3.366H9.291V6.29zM6.628 6.29h1.407v3.366H6.628V6.29zM3.965 6.29h1.407v3.366H3.965V6.29zM1.303 6.29h1.406v3.366H1.303V6.29zM11.166 5.235v-.352H.834v.352c0 .194.157.351.352.351h9.629c.194 0 .351-.157.351-.351zM11.648 10.36H.352c-.194 0-.352.157-.352.35v.938c0 .195.158.352.352.352h11.296c.195 0 .352-.157.352-.352v-.937c0-.194-.157-.352-.352-.352zM.352 4.18h11.297c.157 0 .295-.105.338-.256.043-.151-.02-.313-.154-.395L6.184.052c-.112-.07-.255-.07-.368 0L.167 3.53c-.133.082-.196.244-.153.395.042.151.18.256.338.256zm5.41-2.112h.477c.194 0 .352.157.352.351 0 .195-.158.352-.352.352h-.478c-.194 0-.351-.157-.351-.352 0-.194.157-.351.351-.351z"/>
    </g>
    <defs>
        <clipPath id="prefix__clip0">
            <path fill="#fff" d="M0 0H12V12H0z"/>
        </clipPath>
    </defs>
</svg>
