<svg xmlns="http://www.w3.org/2000/svg" width="12" height="12" fill="none" viewBox="0 0 12 12">
    <path fill="#000" fill-opacity=".5" d="M10.764 7.204c-.656 0-1.237-.328-1.588-.828-.351.5-.932.828-1.588.828S6.35 6.876 6 6.376c-.351.5-.932.828-1.588.828s-1.237-.328-1.588-.828c-.35.5-.932.828-1.588.828-.185 0-.363-.027-.533-.075v4.177h10.594V7.129c-.17.048-.348.075-.533.075zM8.803.694l.668 3.824h2.385L10.521.694H8.803zM6.352 4.518h2.405L8.09.694H6.352v3.824zM5.648 4.518V.694H3.91l-.668 3.824h2.406zM2.529 4.518L3.196.694H1.48L.144 4.518h2.385zM1.236 6.5c.682 0 1.237-.554 1.237-1.235V5.22H0v.044C0 5.946.555 6.5 1.236 6.5z"/>
    <path fill="#000" fill-opacity=".5" d="M5.648 5.265V5.22H3.176v.044c0 .681.554 1.236 1.236 1.236.682 0 1.236-.555 1.236-1.236zM8.824 5.265V5.22H6.352v.044c0 .681.554 1.236 1.236 1.236.682 0 1.236-.555 1.236-1.236zM10.764 6.5C11.445 6.5 12 5.947 12 5.266V5.22H9.527v.044c0 .681.555 1.236 1.237 1.236z"/>
</svg>
