<svg xmlns="http://www.w3.org/2000/svg" width="20" height="20" fill="none" viewBox="0 0 20 20">
    <g clip-path="url(#prefix__clip0)">
        <path fill="#000" fill-opacity=".35" d="M7.235 18.196C7.705 19.257 8.767 20 10 20s2.296-.743 2.765-1.804h-5.53zM10 1.91c.814 0 1.595.144 2.32.407v-.089C12.32.999 11.32 0 10.092 0h-.184C8.679 0 7.68 1 7.68 2.228v.088c.725-.262 1.506-.405 2.32-.405zM17.323 17.022H2.677c-.277 0-.531-.187-.589-.458-.057-.268.065-.533.313-.648.06-.038.503-.348.946-1.286.815-1.722.986-4.147.986-5.879 0-3.125 2.542-5.666 5.667-5.666 3.117 0 5.654 2.53 5.666 5.643v.023c0 1.732.172 4.157.987 5.88.443.937.887 1.247.946 1.285.248.115.37.38.313.648-.058.271-.311.458-.589.458zm.282-1.102z"/>
    </g>
    <defs>
        <clipPath id="prefix__clip0">
            <path fill="#fff" d="M0 0H20V20H0z"/>
        </clipPath>
    </defs>
</svg>
