<svg xmlns="http://www.w3.org/2000/svg" width="16" height="16" fill="none" viewBox="0 0 16 16">
    <path fill="#000" fill-opacity=".3" d="M15.724 1.655H.276c-.152 0-.276.124-.276.276V14.07c0 .153.124.276.276.276h15.448c.152 0 .276-.123.276-.276V1.931c0-.152-.124-.276-.276-.276zm-.276 12.138H.552V2.207h14.896v11.586z"/>
    <path fill="#000" fill-opacity=".3" d="M4.414 7.762c.847 0 1.536-.689 1.536-1.536 0-.847-.689-1.536-1.536-1.536-.847 0-1.536.689-1.536 1.536 0 .847.689 1.536 1.536 1.536zm0-2.52c.543 0 .985.442.985.984 0 .543-.442.985-.985.985-.543 0-.984-.442-.984-.985 0-.542.441-.984.984-.984zM1.931 12.69c.065 0 .13-.023.182-.069l4.5-3.962 2.842 2.842c.108.108.283.108.39 0 .108-.108.108-.282 0-.39L8.52 9.785l2.533-2.774L14.16 9.86c.112.103.286.095.39-.017.102-.112.095-.287-.018-.39l-3.31-3.034c-.054-.05-.126-.074-.199-.073-.073.004-.142.036-.191.09l-2.702 2.96-1.308-1.31c-.104-.102-.268-.107-.378-.011L1.75 12.207c-.115.1-.126.275-.025.39.055.061.13.093.207.093z"/>
</svg>
