<svg xmlns="http://www.w3.org/2000/svg" width="12" height="12" fill="none" viewBox="0 0 12 12">
    <g clip-path="url(#prefix__clip0)">
        <path fill="#000" fill-opacity=".5" d="M11.813 5.25c-.097-.06-.854-.514-1.155-.652l-.372-.9c.11-.297.322-1.132.355-1.276.03-.134-.01-.275-.107-.372l-.583-.583c-.097-.097-.238-.138-.372-.107-.11.025-.966.24-1.277.355l-.9-.372C7.271 1.055 6.831.316 6.751.188 6.678.072 6.55.001 6.412.001h-.824c-.138 0-.266.07-.339.187-.06.097-.514.854-.652 1.155l-.9.372c-.297-.11-1.132-.322-1.276-.355-.134-.03-.275.01-.372.107l-.583.583c-.097.097-.138.238-.107.372.025.11.24.966.355 1.277l-.372.9C1.054 4.73.315 5.17.187 5.25.071 5.323 0 5.451 0 5.59v.824c0 .138.07.266.187.339.097.06.854.514 1.155.651l.372.9c-.11.298-.322 1.133-.355 1.277-.03.134.01.275.107.372l.583.583c.097.097.238.138.372.107.11-.025.966-.24 1.277-.355l.9.372c.131.288.571 1.027.651 1.155.073.116.201.187.339.187h.824c.138 0 .266-.07.339-.187.06-.097.514-.854.652-1.155l.9-.372c.297.11 1.132.322 1.276.355.134.03.275-.01.372-.107l.583-.583c.097-.097.138-.238.107-.372-.025-.11-.24-.966-.355-1.277l.373-.9c.287-.131 1.026-.571 1.154-.651.116-.073.187-.201.187-.339V5.59c0-.138-.07-.266-.187-.339zM6 8.617C4.558 8.617 3.384 7.443 3.384 6c0-1.442 1.174-2.616 2.616-2.616 1.442 0 2.616 1.174 2.616 2.616 0 1.442-1.174 2.616-2.616 2.616z"/>
    </g>
    <defs>
        <clipPath id="prefix__clip0">
            <path fill="#fff" d="M0 0H12V12H0z"/>
        </clipPath>
    </defs>
</svg>
