<svg xmlns="http://www.w3.org/2000/svg" width="20" height="20" fill="none" viewBox="0 0 20 20">
    <g clip-path="url(#prefix__clip0)">
        <path fill="#000" fill-opacity=".35" d="M19.756 18.577l-5.688-5.687c1.102-1.36 1.765-3.09 1.765-4.973C15.833 3.552 12.281 0 7.917 0 3.552 0 0 3.552 0 7.917s3.552 7.916 7.917 7.916c1.883 0 3.612-.663 4.973-1.765l5.687 5.688c.163.162.376.244.59.244.213 0 .426-.082.589-.244.325-.326.325-.853 0-1.179zm-11.84-4.41c-3.446 0-6.25-2.804-6.25-6.25 0-3.447 2.804-6.25 6.25-6.25 3.447 0 6.25 2.803 6.25 6.25 0 3.446-2.803 6.25-6.25 6.25z"/>
    </g>
    <defs>
        <clipPath id="prefix__clip0">
            <path fill="#fff" d="M0 0H20V20H0z"/>
        </clipPath>
    </defs>
</svg>
