<svg xmlns="http://www.w3.org/2000/svg" width="14" height="14" fill="none" viewBox="0 0 14 14">
    <g clip-path="url(#prefix__clip0)">
        <path fill="#000" fill-opacity=".3" d="M13.781 6.125c-.112-.07-.995-.6-1.346-.76L12 4.315c.13-.347.376-1.321.415-1.49.035-.156-.012-.32-.125-.434l-.68-.68c-.114-.113-.278-.16-.434-.125-.128.03-1.127.28-1.49.415l-1.05-.435C8.483 1.23 7.97.368 7.876.22 7.791.084 7.641 0 7.481 0h-.962c-.16 0-.31.083-.395.219-.07.112-.6.995-.76 1.346l-1.05.435c-.347-.13-1.321-.376-1.49-.415-.156-.035-.32.012-.434.125l-.68.68c-.113.114-.16.278-.125.434.03.128.28 1.127.415 1.49l-.435 1.05c-.336.153-1.198.666-1.346.76C.083 6.21 0 6.36 0 6.52v.962c0 .16.083.31.219.395.112.07.995.6 1.346.76L2 9.687c-.13.347-.376 1.32-.415 1.49-.035.156.012.32.125.434l.68.68c.114.113.278.16.434.125.128-.03 1.127-.28 1.49-.415l1.05.435c.153.336.667 1.198.76 1.346.085.136.235.219.395.219h.962c.16 0 .31-.083.395-.219.07-.112.6-.995.76-1.346L9.686 12c.347.13 1.321.376 1.49.415.156.035.32-.012.434-.125l.68-.68c.113-.114.16-.278.125-.434-.03-.128-.28-1.127-.415-1.49l.435-1.05c.336-.153 1.198-.667 1.346-.76.136-.085.219-.235.219-.395V6.52c0-.16-.083-.31-.219-.395zM7 10.053c-1.683 0-3.052-1.37-3.052-3.052 0-1.683 1.37-3.052 3.052-3.052 1.683 0 3.052 1.37 3.052 3.052 0 1.683-1.37 3.052-3.052 3.052z"/>
    </g>
    <defs>
        <clipPath id="prefix__clip0">
            <path fill="#fff" d="M0 0H14V14H0z"/>
        </clipPath>
    </defs>
</svg>
