<svg xmlns="http://www.w3.org/2000/svg" width="14" height="14" fill="none" viewBox="0 0 14 14">
    <g fill="#000" fill-opacity=".3" clip-path="url(#prefix__clip0)">
        <path d="M13.84 3.93L10.61.697c-.108-.106-.234-.16-.38-.16-.067 0-.137.015-.21.043-.219.095-.328.26-.328.496v1.615H8.346c-.595 0-1.146.031-1.654.093-.507.062-.954.147-1.341.257-.387.109-.737.245-1.048.408-.311.162-.576.335-.795.517-.219.182-.41.39-.576.623-.166.232-.298.461-.396.685-.098.225-.176.472-.235.74-.06.27-.099.522-.118.758-.02.235-.03.49-.03.765 0 .315.05.657.148 1.027.098.37.206.69.324.96.117.268.256.547.416.836.16.289.27.481.332.576.062.096.121.183.177.261.056.073.129.11.219.11.022 0 .056-.006.1-.017.13-.062.186-.157.169-.286-.252-1.885-.045-3.211.623-3.98.645-.735 1.873-1.102 3.685-1.102h1.346v1.615c0 .236.11.401.328.497.073.028.143.042.21.042.152 0 .278-.053.379-.16l3.23-3.23c.107-.107.16-.233.16-.38 0-.145-.053-.271-.16-.378z"/>
        <path d="M11.67 8.616c-.107-.045-.205-.023-.295.067-.146.134-.297.238-.454.311-.102.056-.152.138-.152.244v1.8c0 .37-.132.688-.395.951-.264.264-.58.396-.951.396h-7c-.37 0-.687-.132-.95-.396-.264-.263-.396-.58-.396-.95v-7c0-.37.132-.687.395-.951.264-.264.58-.395.951-.395h.942c.034 0 .079-.012.135-.034.314-.19.687-.36 1.119-.505.146-.028.219-.118.219-.27 0-.072-.027-.135-.08-.188-.054-.054-.117-.08-.19-.08H2.423c-.667 0-1.238.237-1.712.71C.237 2.802 0 3.372 0 4.04v7c0 .667.237 1.238.71 1.712.475.474 1.046.71 1.713.71h7c.668 0 1.238-.236 1.712-.71s.711-1.045.711-1.712v-2.18c0-.112-.059-.193-.177-.243z"/>
    </g>
    <defs>
        <clipPath id="prefix__clip0">
            <path fill="#fff" d="M0 0H14V14H0z"/>
        </clipPath>
    </defs>
</svg>
