<svg xmlns="http://www.w3.org/2000/svg" width="12" height="12" fill="none" viewBox="0 0 12 12">
    <path fill="#000" fill-opacity=".5" d="M10.752 9.896l-.536-6.753c-.034-.435-.402-.776-.838-.776H8.32v1.569c0 .194-.158.351-.352.351-.194 0-.351-.157-.351-.351V2.367H4.383v1.569c0 .194-.157.351-.351.351-.194 0-.351-.157-.351-.351V2.367H2.622c-.436 0-.804.341-.838.775l-.536 6.755c-.041.54.147 1.079.515 1.477.369.397.891.626 1.433.626h5.608c.542 0 1.064-.229 1.433-.626.368-.398.556-.937.514-1.478zm-3.169-3.44L5.766 8.275c-.069.07-.159.104-.249.104s-.18-.035-.248-.104l-.852-.851c-.138-.138-.138-.36 0-.497.137-.138.36-.138.497 0l.603.603 1.57-1.57c.137-.136.36-.136.496 0 .138.138.138.36 0 .498zM6 0C4.721 0 3.68 1.04 3.68 2.32v.047h.704V2.32c0-.892.725-1.617 1.616-1.617.892 0 1.617.725 1.617 1.617v.047h.703V2.32C8.32 1.04 7.28 0 6 0z"/>
</svg>
