<svg xmlns="http://www.w3.org/2000/svg" width="12" height="12" fill="none" viewBox="0 0 12 12">
    <path fill="#000" fill-opacity=".5" d="M1.781 5.625c.284 0 .54-.114.73-.297l1.041.52c-.005.043-.013.085-.013.129 0 .581.473 1.054 1.055 1.054.581 0 1.054-.473 1.054-1.054 0-.163-.04-.315-.105-.452l1.411-1.412c.138.066.29.106.452.106.582 0 1.055-.473 1.055-1.055 0-.11-.022-.213-.053-.312l1.227-.92c.167.112.368.177.584.177.581 0 1.054-.473 1.054-1.054C11.273.473 10.8 0 10.22 0c-.582 0-1.055.473-1.055 1.055 0 .11.022.213.053.312l-1.227.92c-.167-.112-.368-.178-.584-.178-.581 0-1.054.474-1.054 1.055 0 .162.04.314.105.452L5.046 5.028c-.138-.066-.29-.106-.452-.106-.284 0-.54.114-.73.296l-1.041-.52c.005-.042.013-.084.013-.128 0-.581-.473-1.054-1.055-1.054-.581 0-1.054.473-1.054 1.054 0 .582.473 1.055 1.054 1.055z"/>
    <path fill="#000" fill-opacity=".5" d="M11.648 11.297h-.375v-7.43c0-.194-.157-.351-.351-.351H9.516c-.195 0-.352.157-.352.351v7.43h-.703v-5.32c0-.195-.157-.352-.352-.352H6.703c-.194 0-.351.157-.351.352v5.32h-.704V8.789c0-.194-.157-.351-.351-.351H3.89c-.195 0-.352.157-.352.351v2.508h-.703V7.383c0-.194-.157-.352-.352-.352H1.078c-.194 0-.351.158-.351.352v3.914H.352c-.195 0-.352.157-.352.351 0 .195.157.352.352.352h11.296c.195 0 .352-.157.352-.352 0-.194-.157-.351-.352-.351z"/>
</svg>
