<svg xmlns="http://www.w3.org/2000/svg" width="66" height="66" fill="none" viewBox="0 0 66 66">
    <g clip-path="url(#prefix__clip0)">
        <path fill="#010002" d="M14.599 45.983H51.4c.345 0 .676-.136.92-.38.243-.244.38-.575.38-.92V22.46c-.002-.343-.14-.672-.384-.913-.243-.242-.573-.378-.916-.378h-4.925c-.173-.248-.407-.449-.68-.582-.272-.133-.574-.193-.877-.176h-1.152c-.301-.016-.601.046-.872.179-.27.133-.503.332-.675.58H24.627c-.17-.25-.402-.451-.673-.584-.271-.133-.572-.193-.874-.175h-1.152c-.302-.017-.602.043-.873.176s-.503.334-.674.582h-5.733c-.343 0-.672.136-.916.378-.244.241-.382.57-.384.913v22.223c0 .337.13.66.363.903.233.242.551.385.888.397zM14.41 22.46c0-.024.005-.048.015-.07.01-.023.023-.043.04-.06.018-.016.04-.029.062-.037.022-.008.047-.012.07-.01h6.69v-.552c.078-.074.171-.13.273-.166.102-.036.21-.05.317-.04h1.153c.107-.01.214.004.316.038.101.033.195.087.275.158v.562h19.514v-.552c.079-.074.172-.13.274-.166.102-.036.21-.05.317-.04h1.153c.107-.011.214.001.316.035.102.034.196.089.275.161v.562h5.91c.025-.002.05.002.074.01.023.01.044.024.062.041.018.018.031.04.04.062.01.024.013.049.012.074v22.213c.001.025-.003.05-.012.073-.009.024-.022.045-.04.063-.018.017-.039.031-.062.04-.024.009-.049.013-.074.011H14.6c-.025.002-.05-.002-.074-.011-.023-.009-.044-.023-.062-.04-.018-.018-.031-.04-.04-.063-.009-.023-.013-.048-.011-.073V22.46z"/>
        <path fill="#010002" d="M38.842 34.881c-.313-.37-.717-.651-1.172-.817h-.07c-.37-.176-.752-.328-1.142-.453l-.236-.089c-.146-.074-.288-.156-.424-.246.373-.505.638-1.082.778-1.695.128-.174.213-.377.246-.59.128-.401.128-.831 0-1.232.131-.386.18-.796.145-1.202-.035-.406-.154-.8-.35-1.159-.195-.358-.462-.672-.784-.922-.323-.25-.694-.43-1.09-.53l-.423-.137c-.418-.144-.85-.24-1.29-.286-.052-.013-.106-.013-.158 0h-.138c-.205.005-.408.045-.6.118-.463.189-.882.47-1.233.825-.35.356-.625.78-.807 1.244-.174.62-.195 1.272-.059 1.901-.088.204-.133.424-.133.645 0 .222.045.442.133.646.031.23.115.449.247.64.12.6.364 1.167.719 1.665-.607.386-1.273.672-1.97.847-.453.16-.852.444-1.153.817-.985 1.488-1.133 4.591-1.133 4.749 0 .916.453 1.192.65 1.28 1.826.67 3.742 1.063 5.684 1.163h.562c1.935-.103 3.844-.495 5.664-1.163.197-.088.63-.374.65-1.3 0-.138-.128-3.241-1.133-4.729l.02.01zm-7.644-5.19c-.122-.53-.122-1.078 0-1.607.266-.634.772-1.137 1.408-1.398H32.892c.072.01.145.01.217 0 .314.052.623.128.926.226l.433.148c.408.101.776.325 1.054.64.191.302.312.643.352.998.041.354.002.714-.115 1.051l-.07.237.158.246c.009.194-.018.387-.079.571-.004.073-.032.142-.078.197l-.119.128v.168c-.187 1.083-1.172 2.344-2.167 2.344-.739 0-1.803-1.044-1.97-2.334v-.178L31.316 31c-.057-.074-.09-.163-.099-.256-.044-.154-.074-.313-.088-.473l.246-.157-.177-.424zm7.634 10.204c-1.536.546-3.14.878-4.768.985h-.916c-1.782-.092-3.54-.444-5.22-1.044-.02-.09-.02-.184 0-.276.02-1.42.332-2.822.915-4.117.17-.18.379-.319.611-.404.837-.213 1.627-.584 2.325-1.093.444.396 1.01.63 1.606.66.615-.019 1.208-.24 1.684-.63.22.18.461.332.72.452l.364.138c.365.126.723.271 1.073.434h.118c.24.082.456.22.631.404.608 1.283.944 2.678.985 4.097-.019.138-.062.272-.128.394z"/>
        <path stroke="#000" stroke-miterlimit="10" d="M33 65.508c17.953 0 32.507-14.554 32.507-32.508C65.507 15.047 50.953.493 33 .493 15.046.493.492 15.047.492 33 .492 50.953 15.046 65.508 33 65.508z"/>
    </g>
    <defs>
        <clipPath id="prefix__clip0">
            <path fill="#fff" d="M0 0H66V66H0z"/>
        </clipPath>
    </defs>
</svg>
