<svg xmlns="http://www.w3.org/2000/svg" width="16" height="16" fill="none" viewBox="0 0 16 16">
    <path fill="#000" d="M15.834 3.848c-.103-.06-.23-.063-.336-.006l-3.67 2.005V4.644c-.002-.936-.76-1.694-1.696-1.695H1.695C.759 2.95 0 3.71 0 4.644v6.692c.001.936.76 1.694 1.695 1.695h8.437c.936 0 1.694-.759 1.695-1.695v-1.18l3.671 2.004c.106.057.233.055.336-.006.103-.061.166-.172.166-.291V4.14c0-.12-.063-.23-.166-.292zm-4.685 7.489c0 .561-.455 1.016-1.017 1.017H1.695c-.562-.001-1.016-.456-1.017-1.018V4.644c0-.561.455-1.016 1.017-1.017h8.437c.562 0 1.017.456 1.017 1.017v6.692zm4.173-.046l-3.495-1.908V6.62l3.495-1.908v6.58z"/>
</svg>
