<svg xmlns="http://www.w3.org/2000/svg" width="16" height="16" fill="none" viewBox="0 0 16 16">
    <g clip-path="url(#prefix__clip0)">
        <path fill="#000" fill-opacity=".3" d="M12.668 12.633c-.11-.069-.254-.036-.323.073-.586.922-1.587 1.473-2.677 1.473H3.636C1.89 14.18.47 12.76.47 11.011V5.394c0-.129-.105-.234-.235-.234-.129 0-.234.105-.234.234v5.617c0 2.006 1.631 3.637 3.636 3.637h6.032c1.252 0 2.4-.632 3.072-1.691.07-.11.037-.254-.072-.324zm-2.06-6.228L8.82 8.192c-.092.092-.092.24 0 .332.045.046.105.069.165.069.06 0 .12-.023.166-.07l1.787-1.786c.091-.092.091-.24 0-.332-.091-.091-.24-.091-.332 0zM15.66 2.5l-.817-.817c-.452-.452-1.188-.452-1.64 0l-.848.848c-.69-.757-1.655-1.187-2.688-1.187H3.636c-.836 0-1.653.29-2.3.82C.7 2.683.254 3.411.082 4.212c-.027.126.054.251.18.278.017.004.033.006.05.006.108 0 .205-.076.228-.186.15-.697.539-1.33 1.094-1.785.563-.46 1.275-.713 2.003-.713h6.032c.907 0 1.755.38 2.356 1.05L9.53 5.356H2.996c-.13 0-.235.105-.235.234 0 .13.105.235.235.235h6.067L7.939 6.948H2.996c-.13 0-.235.105-.235.235s.105.234.235.234H7.47L6.016 8.871c-.42.421-.766.907-1.024 1.444L4.325 11.7c-.185.383-.11.826.191 1.127.192.191.44.291.695.291.145 0 .293-.033.432-.1l.673-.323.713-.344c.537-.258 1.023-.603 1.444-1.024l4.362-4.362v4.045c0 .257-.03.512-.091.76-.03.125.046.252.172.283.019.004.037.006.056.006.105 0 .201-.071.227-.178.07-.283.105-.576.105-.87V6.496l.652-.651L15.66 4.14c.452-.453.452-1.188 0-1.64zM5.44 12.597c-.245.118-.467.025-.593-.1-.126-.127-.218-.348-.1-.593l.197-.41c.165.131.325.274.478.427.153.153.296.313.428.478l-.41.198zm1.385-.667l-.542.261c-.161-.209-.338-.41-.53-.601-.19-.191-.392-.369-.6-.53l.26-.542c.18-.374.407-.72.675-1.035l1.772 1.773c-.314.268-.66.494-1.035.674zm1.377-.995L6.41 9.14l5.256-5.255 1.794 1.794-5.256 5.255zm5.587-5.587l-1.794-1.794.579-.578 1.794 1.794-.579.578zm1.54-1.539l-.63.63-1.794-1.795.63-.63c.134-.134.31-.201.488-.201.177 0 .354.067.489.202l.816.817c.27.27.27.708 0 .977zm-12.334.423h7.313c.129 0 .234-.105.234-.234 0-.13-.105-.235-.234-.235H2.996c-.13 0-.235.105-.235.235s.105.234.235.234z"/>
    </g>
    <defs>
        <clipPath id="prefix__clip0">
            <path fill="#fff" d="M0 0H16V16H0z"/>
        </clipPath>
    </defs>
</svg>
